<svg xmlns="http://www.w3.org/2000/svg" width="48" height="48" viewBox="0 0 48 48" fill="none">
  <rect width="48" height="48" rx="8" fill="#E5E7EB"/>
  <path d="M24 14C18.48 14 14 18.48 14 24C14 29.52 18.48 34 24 34C29.52 34 34 29.52 34 24C34 18.48 29.52 14 24 14ZM24 16C28.42 16 32 19.58 32 24C32 28.42 28.42 32 24 32C19.58 32 16 28.42 16 24C16 19.58 19.58 16 24 16ZM24 19C21.24 19 19 21.24 19 24C19 26.76 21.24 29 24 29C26.76 29 29 26.76 29 24C29 21.24 26.76 19 24 19ZM24 21C25.66 21 27 22.34 27 24C27 25.66 25.66 27 24 27C22.34 27 21 25.66 21 24C21 22.34 22.34 21 24 21Z" fill="#9CA3AF"/>
</svg> 